<svg xmlns="http://www.w3.org/2000/svg" viewBox="0 0 252 315" fill-rule="evenodd" clip-rule="evenodd" shape-rendering="geometricPrecision" text-rendering="geometricPrecision" image-rendering="optimizeQuality"><path d="M126 0c69 0 126 56 126 126 0 69-57 126-126 126C56 252 0 195 0 126 0 56 56 0 126 0zm19 187c0 25-38 25-38 0v-42H65c-25 0-25-38 0-38h42V65c0-25 38-25 38 0v42h42c25 0 25 38 0 38h-42v42z"/><text y="267" font-size="5" font-weight="bold" font-family="'Helvetica Neue', Helvetica, Arial-Unicode, Arial, Sans-serif">Created by yasminvisible</text><text y="272" font-size="5" font-weight="bold" font-family="'Helvetica Neue', Helvetica, Arial-Unicode, Arial, Sans-serif">from the Noun Project</text></svg>