<svg xmlns="http://www.w3.org/2000/svg" xmlns:xlink="http://www.w3.org/1999/xlink" version="1.1" x="0px" y="0px" viewBox="0 0 100 125" style="enable-background:new 0 0 100 100;" xml:space="preserve"><path d="M58.333,40.314V20.833c0-4.602-3.731-12.5-8.333-12.5s-8.333,7.898-8.333,12.5v19.481c0,1.28,0.02,2.559,0.05,3.837  L8.333,54.167V62.5l34.425-3.443c0.727,6.255,1.819,12.462,3.267,18.592L37.5,83.333V87.5l10.19-3.397  c0.71,2.537,1.475,5.06,2.31,7.563c0.834-2.503,1.599-5.027,2.31-7.563L62.5,87.5v-4.167l-8.525-5.683  c1.448-6.13,2.54-12.338,3.267-18.592L91.667,62.5v-8.333L58.283,44.152C58.313,42.873,58.333,41.594,58.333,40.314z"/><text x="0" y="115" fill="#000000" font-size="5px" font-weight="bold" font-family="'Helvetica Neue', Helvetica, Arial-Unicode, Arial, Sans-serif">Created by Arthur Shlain</text><text x="0" y="120" fill="#000000" font-size="5px" font-weight="bold" font-family="'Helvetica Neue', Helvetica, Arial-Unicode, Arial, Sans-serif">from the Noun Project</text></svg>