<?xml version="1.0" encoding="utf-8"?>
<!-- Generator: Adobe Illustrator 22.1.0, SVG Export Plug-In . SVG Version: 6.00 Build 0)  -->
<svg version="1.1" id="Layer_1" xmlns="http://www.w3.org/2000/svg" xmlns:xlink="http://www.w3.org/1999/xlink" x="0px" y="0px"
	 viewBox="0 0 157.3 138.2" style="enable-background:new 0 0 157.3 138.2;" xml:space="preserve">
<style type="text/css">
	.st0{fill:#481EF7;}
	.st1{fill:#FFFFFF;}
	.st2{enable-background:new    ;}
</style>
<title>coming</title>
<g>
	<path d="M44,6v114H6V6H44 M45,0H5C2.2,0,0,2.2,0,5v116c0,2.8,2.2,5,5,5h45V5C50,2.2,47.8,0,45,0z"/>
</g>
<g>
	<path d="M88,29.5V120H50V29.5H88 M94,23.5H44V126h50V23.5z"/>
</g>
<g>
	<path d="M132,11.9V120H94V11.9H132 M133,5.9H93c-2.8,0-5,2.2-5,5V126h45c2.8,0,5-2.2,5-5V10.9C138,8.1,135.8,5.9,133,5.9z"/>
</g>
<g>
	<rect x="14" y="25" width="22" height="6"/>
</g>
<g>
	<rect x="14" y="36" width="22" height="6"/>
</g>
<g>
	<rect x="58" y="50" width="22" height="6"/>
</g>
<g>
	<rect x="58" y="61" width="22" height="6"/>
</g>
<g>
	<rect x="102" y="30" width="22" height="6"/>
</g>
<g>
	<rect x="102" y="41" width="22" height="6"/>
</g>
<g>
	<circle class="st0" cx="128.8" cy="109.7" r="26.5"/>
</g>
<g>
	<path class="st1" d="M128.8,85.2c13.5,0,24.5,11,24.5,24.5s-11,24.5-24.5,24.5s-24.5-11-24.5-24.5
		C104.3,96.2,115.3,85.2,128.8,85.2 M128.8,81.2c-15.7,0-28.5,12.8-28.5,28.5s12.8,28.5,28.5,28.5s28.5-12.8,28.5-28.5l0,0
		C157.3,93.9,144.6,81.2,128.8,81.2z"/>
</g>
<g class="st2">
	<path class="st1" d="M131.5,110.1c2.2,1.5,4.2,4.4,4.2,8.6h1.1c0.2,0,0.4,0.2,0.4,0.4v0.7c0,0.2-0.2,0.4-0.4,0.4h-16.4
		c-0.2,0-0.4-0.2-0.4-0.4v-0.7c0-0.2,0.2-0.4,0.4-0.4h1.1c0-4.1,2-7.1,4.2-8.6c-2.2-1.5-4.2-4.4-4.2-8.6h-1.1
		c-0.2,0-0.4-0.2-0.4-0.4v-0.7c0-0.2,0.2-0.4,0.4-0.4h16.4c0.2,0,0.4,0.2,0.4,0.4v0.7c0,0.2-0.2,0.4-0.4,0.4h-1.1
		C135.7,105.7,133.7,108.7,131.5,110.1z M122.9,101.6c0,1.6,0.4,3.1,0.9,4.3h9.5c0.6-1.2,0.9-2.7,0.9-4.3H122.9z M129.8,110.8h-2.6
		c-1.5,0.6-3,2.1-3.8,4.3h10.2C132.8,113,131.3,111.4,129.8,110.8z"/>
</g>
</svg>
