<svg id="Layer_1" data-name="Layer 1" xmlns="http://www.w3.org/2000/svg" viewBox="0 0 157.31 138.19"><defs><style>.cls-1,.cls-4{fill:none;stroke-miterlimit:10;}.cls-1{stroke:#000;stroke-width:6px;}.cls-2{fill:#3dbf00;}.cls-3{fill:#fff;}.cls-4{stroke:#fff;stroke-width:4px;fill-rule:evenodd;}</style></defs><title>done</title><path d="M44,6V120H6V6H44m1-6H5A5,5,0,0,0,0,5V121a5,5,0,0,0,5,5H50V5a5,5,0,0,0-5-5Z"/><path d="M88,29.52V120H50V29.52H88m6-6H44V126H94V23.52Z"/><path d="M132,11.88V120H94V11.88h38m1-6H93a5,5,0,0,0-5,5V126h45a5,5,0,0,0,5-5V10.88a5,5,0,0,0-5-5Z"/><line class="cls-1" x1="14" y1="28" x2="36" y2="28"/><line class="cls-1" x1="14" y1="39" x2="36" y2="39"/><line class="cls-1" x1="58" y1="53" x2="80" y2="53"/><line class="cls-1" x1="58" y1="64" x2="80" y2="64"/><line class="cls-1" x1="102" y1="33" x2="124" y2="33"/><line class="cls-1" x1="102" y1="44" x2="124" y2="44"/><circle class="cls-2" cx="128.81" cy="109.69" r="26.5"/><path class="cls-3" d="M128.81,85.19a24.5,24.5,0,1,1-24.5,24.5,24.53,24.53,0,0,1,24.5-24.5m0-4a28.5,28.5,0,1,0,28.5,28.5,28.5,28.5,0,0,0-28.5-28.5Z"/><polyline class="cls-4" points="118.69 106.81 126.69 115.81 138.94 103.56"/></svg>