<svg id="Layer_1" data-name="Layer 1" xmlns="http://www.w3.org/2000/svg" viewBox="0 0 157.06 138.19"><defs><style>.cls-1{fill:#151515;}.cls-2{fill:#3dbf00;}.cls-3{fill:#fff;}.cls-4{fill:none;stroke:#fff;stroke-miterlimit:10;stroke-width:4px;fill-rule:evenodd;}</style></defs><title>project</title><path class="cls-1" d="M127.1,0h-18V7.91H86C86,3.43,82.24,0,77.34,0H60c-4.9,0-8.65,3.43-8.65,7.91H28.33V0h-18a5,5,0,0,0-5,5V21.08h8.64V44.8H4.49a5,5,0,0,0-5,5v26.9a5,5,0,0,0,5,5h9.4v23.72H5.27v16.07a5,5,0,0,0,5,5H28.33v-7.91H61.77c4.32,5.54,4.32,7.91,6.92,7.91s2.88-2.37,6.92-7.91h33.44v7.91h23.06V105.42h-8.65V81.7h14.42V49.82a5,5,0,0,0-5-5h-9.4V21.08h8.65V5a5,5,0,0,0-5-5ZM114.81,5.27h11.53V15.81H114.81V5.27ZM57.16,21.08V7.91A2.61,2.61,0,0,1,60,5.27h17.3a2.61,2.61,0,0,1,2.88,2.64V21.08ZM11,15.81h0V5.27H22.56V15.81Zm75,29V13.18h23.07v7.9h8.65V44.8Zm-66.3,0V21.08h8.65v-7.9H51.39V44.8ZM57.16,92.24V26.35H80.22V92.24ZM86,76.43V50.07h46.13V76.43h-8.65V65.89a2.89,2.89,0,0,0-5.76,0V76.43h-5.77V71.16a2.9,2.9,0,0,0-5.77,0v5.27H97.52V65.89a2.9,2.9,0,0,0-5.77,0V76.43Zm-80.71,0V50.07H51.39V76.43H45.62V65.89a2.61,2.61,0,0,0-2.88-2.64,2.61,2.61,0,0,0-2.88,2.64V76.43H31.21V71.16a2.62,2.62,0,0,0-2.88-2.64,2.62,2.62,0,0,0-2.88,2.64v5.27H19.68V65.89a2.61,2.61,0,0,0-2.88-2.64,2.62,2.62,0,0,0-2.89,2.64V76.43Zm79.56,29c.58-1.06,1.44-1.58,1.44-2.64V81.7H118v23.72h-8.93v7.9H79.35c.85-1.29,5.31-7.91,5.48-7.91ZM51.39,81.7h0V97.51c0,4.74-.29,5.53.58,6.59l.86,1.32c.28.25,2.72,4,2.88,4h0a41.88,41.88,0,0,1,2.62,4s0,0,0,0h-30v-7.9H19.68V81.7Zm8.07,23.72L57.16,102V97.51H80.22V102l-2.31,3.43Zm55.35,15.81V110.69h11.53v10.54Zm-46.12-2.37-.29-.27-5.48-7.9H74.16l-5.47,7.9v.27ZM11,121.23V110.69H22.56v10.54Z"/><circle class="cls-2" cx="128.69" cy="109.69" r="26.5"/><path class="cls-3" d="M128.69,85.19a24.5,24.5,0,1,1-24.5,24.5,24.53,24.53,0,0,1,24.5-24.5m0-4a28.5,28.5,0,1,0,28.5,28.5,28.5,28.5,0,0,0-28.5-28.5Z"/><polyline class="cls-4" points="118.56 106.81 126.56 115.81 138.81 103.56"/></svg>