<svg data-name="Layer 1" xmlns="http://www.w3.org/2000/svg" viewBox="0 0 75.42 82.4"><path d="M71.6 4.2H57.4V2.8a2.8 2.8 0 1 0-5.6 0v1.4H24.3V2.8a2.8 2.8 0 1 0-5.6 0v1.4H4a3.83 3.83 0 0 0-4 4v70.3a3.81 3.81 0 0 0 4 3.9h67.4a3.87 3.87 0 0 0 4-3.9V8.2a3.67 3.67 0 0 0-3.8-4zM5.7 9.7h13.2v1.4a2.8 2.8 0 0 0 5.6 0V9.7H52v1.4a2.8 2.8 0 0 0 5.6 0V9.7h12.6v11.5H5.9V9.7zm64.4 67.1H5.8V26.7h64.3zM16.7 39.7H25V48h-8.3zm17.1 0h8.3V48h-8.3zm17.1 0h8.3V48h-8.3zM16.7 55.9H25v8.3h-8.3zm17.1 0h8.3v8.3h-8.3zm17.1 0h8.3v8.3h-8.3z" fill="#481ef7"/></svg>