<svg id="Layer_1" xmlns="http://www.w3.org/2000/svg" viewBox="0 0 157.3 138.2"><style>.st1{fill:#fff}</style><path d="M44 6v114H6V6h38m1-6H5C2.2 0 0 2.2 0 5v116c0 2.8 2.2 5 5 5h45V5c0-2.8-2.2-5-5-5z"/><path d="M88 29.5V120H50V29.5h38m6-6H44V126h50V23.5z"/><path d="M132 11.9V120H94V11.9h38m1-6H93c-2.8 0-5 2.2-5 5V126h45c2.8 0 5-2.2 5-5V10.9c0-2.8-2.2-5-5-5zM14 25h22v6H14zm0 11h22v6H14zm44 14h22v6H58zm0 11h22v6H58z"/><path d="M102 30h22v6h-22zm0 11h22v6h-22z"/><circle cx="128.8" cy="109.7" r="26.5" fill="#481ef7"/><path class="st1" d="M128.8 85.2c13.5 0 24.5 11 24.5 24.5s-11 24.5-24.5 24.5-24.5-11-24.5-24.5 11-24.5 24.5-24.5m0-4c-15.7 0-28.5 12.8-28.5 28.5s12.8 28.5 28.5 28.5 28.5-12.8 28.5-28.5c0-15.8-12.7-28.5-28.5-28.5z"/><path class="st1" d="M131.5 110.1c2.2 1.5 4.2 4.4 4.2 8.6h1.1c.2 0 .4.2.4.4v.7c0 .2-.2.4-.4.4h-16.4c-.2 0-.4-.2-.4-.4v-.7c0-.2.2-.4.4-.4h1.1c0-4.1 2-7.1 4.2-8.6-2.2-1.5-4.2-4.4-4.2-8.6h-1.1c-.2 0-.4-.2-.4-.4v-.7c0-.2.2-.4.4-.4h16.4c.2 0 .4.2.4.4v.7c0 .2-.2.4-.4.4h-1.1c0 4.2-2 7.2-4.2 8.6zm-8.6-8.5c0 1.6.4 3.1.9 4.3h9.5c.6-1.2.9-2.7.9-4.3h-11.3zm6.9 9.2h-2.6c-1.5.6-3 2.1-3.8 4.3h10.2c-.8-2.1-2.3-3.7-3.8-4.3z"/></svg>