<svg id="Layer_1" xmlns="http://www.w3.org/2000/svg" viewBox="0 0 157.3 138.2"><style>.doing1{fill:#fff}</style><path d="M44 6v114H6V6h38m1-6H5C2.2 0 0 2.2 0 5v116c0 2.8 2.2 5 5 5h45V5c0-2.8-2.2-5-5-5z"/><path d="M88 29.5V120H50V29.5h38m6-6H44V126h50V23.5z"/><path d="M132 11.9V120H94V11.9h38m1-6H93c-2.8 0-5 2.2-5 5V126h45c2.8 0 5-2.2 5-5V10.9c0-2.8-2.2-5-5-5zM14 25h22v6H14zm0 11h22v6H14zm44 14h22v6H58zm0 11h22v6H58z"/><path d="M102 30h22v6h-22zm0 11h22v6h-22z"/><circle cx="128.8" cy="109.7" r="26.5" fill="#dbc600"/><path class="doing1" d="M128.8 85.2c13.5 0 24.5 11 24.5 24.5s-11 24.5-24.5 24.5-24.5-11-24.5-24.5 11-24.5 24.5-24.5m0-4c-15.7 0-28.5 12.8-28.5 28.5s12.8 28.5 28.5 28.5 28.5-12.8 28.5-28.5c0-15.8-12.7-28.5-28.5-28.5z"/><circle class="doing1" cx="117.5" cy="109.5" r="3.5"/><circle class="doing1" cx="128.5" cy="109.5" r="3.5"/><circle class="doing1" cx="139.5" cy="109.5" r="3.5"/></svg>