<svg data-name="Group 98" xmlns="http://www.w3.org/2000/svg" viewBox="0 0 39.801 27.932"><path data-name="Path 1" class="nerd" d="M38.475 1.232A3.841 3.841 0 0 0 35.691 0H24.6a3.841 3.841 0 0 0-2.784 1.232h-3.788A3.841 3.841 0 0 0 15.244 0H4.153a3.841 3.841 0 0 0-2.784 1.232C.548 1.278 0 1.689 0 2.191v3.651a.9.9 0 0 0 .73.822l.73 4.975a3.83 3.83 0 0 0 3.834 3.7h8.854a3.814 3.814 0 0 0 3.788-3.651l.593-4.016c0-.456.639-.867 1.369-.867.776 0 1.369.411 1.369.913l.548 3.925a3.77 3.77 0 0 0 3.834 3.7h8.9a3.814 3.814 0 0 0 3.788-3.651l.73-5.02c.456-.183.73-.456.73-.822V2.191c.047-.502-.497-.867-1.322-.959zM14.788 11.319v.228a.624.624 0 0 1-.639.639h-8.9a.624.624 0 0 1-.639-.639v-.228l-1.1-7.531a.682.682 0 0 1 .639-.593h11.095a.694.694 0 0 1 .639.5zm20.447.046v.228a.624.624 0 0 1-.639.639H25.7a.624.624 0 0 1-.639-.639v-.228l-1.1-7.576a.615.615 0 0 1 .639-.593h11.091a.694.694 0 0 1 .639.5z"/><path data-name="Path 2" class="nerd" d="M29.576 21.314H10.27a1.208 1.208 0 0 0-1.187 1.187 1.178 1.178 0 0 0 1.187 1.187h4.245v3.377a.867.867 0 0 0 .867.867h9.083a.867.867 0 0 0 .867-.867v-3.378h4.245a1.187 1.187 0 1 0 0-2.373zm-10.543 4.838h-2.784v-2.51h2.784zm4.564 0h-2.784v-2.51h2.784z"/></svg>