<svg data-name="Layer 1" xmlns="http://www.w3.org/2000/svg" viewBox="0 0 157.06 138.19"><path d="M127.1 0h-18v7.91H86C86 3.43 82.24 0 77.34 0H60c-4.9 0-8.65 3.43-8.65 7.91H28.33V0h-18a5 5 0 0 0-5 5v16.08h8.64V44.8H4.49a5 5 0 0 0-5 5v26.9a5 5 0 0 0 5 5h9.4v23.72H5.27v16.07a5 5 0 0 0 5 5h18.06v-7.91h33.44c4.32 5.54 4.32 7.91 6.92 7.91s2.88-2.37 6.92-7.91h33.44v7.91h23.06v-21.07h-8.65V81.7h14.42V49.82a5 5 0 0 0-5-5h-9.4V21.08h8.65V5a5 5 0 0 0-5-5zm-12.29 5.27h11.53v10.54h-11.53V5.27zM57.16 21.08V7.91A2.61 2.61 0 0 1 60 5.27h17.3a2.61 2.61 0 0 1 2.88 2.64v13.17zM11 15.81V5.27h11.56v10.54zm75 29V13.18h23.07v7.9h8.65V44.8zm-66.3 0V21.08h8.65v-7.9h23.04V44.8zm37.46 47.43V26.35h23.06v65.89zM86 76.43V50.07h46.13v26.36h-8.65V65.89a2.89 2.89 0 0 0-5.76 0v10.54h-5.77v-5.27a2.9 2.9 0 0 0-5.77 0v5.27h-8.66V65.89a2.9 2.9 0 0 0-5.77 0v10.54zm-80.71 0V50.07h46.1v26.36h-5.77V65.89a2.61 2.61 0 0 0-2.88-2.64 2.61 2.61 0 0 0-2.88 2.64v10.54h-8.65v-5.27a2.62 2.62 0 0 0-2.88-2.64 2.62 2.62 0 0 0-2.88 2.64v5.27h-5.77V65.89a2.61 2.61 0 0 0-2.88-2.64 2.62 2.62 0 0 0-2.89 2.64v10.54zm79.56 29c.58-1.06 1.44-1.58 1.44-2.64V81.7H118v23.72h-8.93v7.9H79.35c.85-1.29 5.31-7.91 5.48-7.91zM51.39 81.7v15.81c0 4.74-.29 5.53.58 6.59l.86 1.32c.28.25 2.72 4 2.88 4a41.88 41.88 0 0 1 2.62 4h-30v-7.9h-8.65V81.7zm8.07 23.72l-2.3-3.42v-4.49h23.06V102l-2.31 3.43zm55.35 15.81v-10.54h11.53v10.54zm-46.12-2.37l-.29-.27-5.48-7.9h11.24l-5.47 7.9v.27zM11 121.23v-10.54h11.56v10.54z" fill="#151515"/><circle cx="128.69" cy="109.69" r="26.5" fill="#3dbf00"/><path d="M128.69 85.19a24.5 24.5 0 1 1-24.5 24.5 24.53 24.53 0 0 1 24.5-24.5m0-4a28.5 28.5 0 1 0 28.5 28.5 28.5 28.5 0 0 0-28.5-28.5z" fill="#fff"/><path fill="none" stroke="#fff" stroke-miterlimit="10" stroke-width="4" fill-rule="evenodd" d="M118.56 106.81l8 9 12.25-12.25"/></svg>